<svg width="16" height="16" fill="none" xmlns="http://www.w3.org/2000/svg">
    <path
      d="M10.207 5.79688c-.20702 0-.37476.16774-.37476.3747v7.08192c0 .2069.16774.3748.37476.3748.2069 0 .3747-.1679.3747-.3748V6.17158c0-.20696-.1678-.3747-.3747-.3747Z"
      fill="#fff"
    />
    <path
      d="M5.78544 5.79688c-.20696 0-.3747.16774-.3747.3747v7.08192c0 .2069.16774.3748.3747.3748.20697 0 .37471-.1679.37471-.3748V6.17158c0-.20696-.16774-.3747-.37471-.3747Z"
      fill="#fff"
    />
    <path
      d="M2.56294 4.76335v9.23195c0 .5457.20009 1.0581.54962 1.4258.34792.3687.83211.578 1.33884.5789h7.0896c.5068-.0009.991-.2102 1.3388-.5789.3495-.3677.5496-.8801.5496-1.4258V4.76335c.6948-.18442 1.1451-.85567 1.0521-1.56864-.0931-.71282-.7004-1.24604-1.4193-1.24619h-1.9185v-.46838A1.4719 1.4719 0 0 0 9.65982.00004H6.33255A1.47216 1.47216 0 0 0 5.28103.4298a1.47218 1.47218 0 0 0-.43238 1.05035v.46838H2.93019c-.71897.00015-1.32626.53337-1.41935 1.24619-.09294.71297.35729 1.38422 1.0521 1.56864ZM11.541 15.2506H4.4514c-.64065 0-1.13904-.5504-1.13904-1.2553V4.79629H12.68v9.19901c0 .7049-.4984 1.2553-1.139 1.2553ZM5.59806 1.48014A.72135.72135 0 0 1 5.81074.9595a.72169.72169 0 0 1 .52181-.21004h3.32727a.72158.72158 0 0 1 .52178.21004.72092.72092 0 0 1 .2127.52064v.46838H5.59806v-.46838ZM2.93019 2.69793H13.0622c.3725 0 .6745.30196.6745.67447s-.302.67448-.6745.67448H2.93019c-.37251 0-.67448-.30197-.67448-.67448 0-.37251.30197-.67447.67448-.67447Z"
      fill="#fff"
    />
    <path
      d="M7.9962 5.79688c-.20697 0-.37471.16774-.37471.3747v7.08192c0 .2069.16774.3748.37471.3748s.37471-.1679.37471-.3748V6.17158c0-.20696-.16774-.3747-.37471-.3747Z"
      fill="#fff"
    />
  </svg>